<svg width="129" height="22" viewBox="0 0 129 22" fill="none" xmlns="http://www.w3.org/2000/svg">
<path d="M3.47612 21.5V9.992H0.760117V7.36H4.45612L3.47612 8.256V6.1C3.47612 4.34533 3.91478 3.02 4.79212 2.124C5.68812 1.228 6.98545 0.78 8.68412 0.78C9.09478 0.78 9.52412 0.807999 9.97212 0.863999C10.4388 0.919999 10.8401 1.02267 11.1761 1.172V3.916C10.9335 3.82267 10.6441 3.748 10.3081 3.692C9.97212 3.636 9.64545 3.608 9.32812 3.608C8.60012 3.608 8.02145 3.82267 7.59212 4.252C7.16278 4.66267 6.94812 5.33467 6.94812 6.268V7.976L6.44412 7.36H16.2721V21.5H12.7721V9.992H6.97612V21.5H3.47612ZM12.5761 4.7V1.284H16.4681V4.7H12.5761ZM20.0788 21.5V10.888C20.0788 10.3093 20.0601 9.72133 20.0228 9.124C19.9855 8.52667 19.9295 7.93867 19.8548 7.36H23.2428L23.5228 10.16H23.1868C23.6348 9.17067 24.2975 8.41467 25.1748 7.892C26.0521 7.35067 27.0695 7.08 28.2268 7.08C29.8881 7.08 31.1388 7.54667 31.9788 8.48C32.8188 9.41333 33.2388 10.8693 33.2388 12.848V21.5H29.7388V13.016C29.7388 11.8773 29.5148 11.0653 29.0668 10.58C28.6375 10.076 27.9841 9.824 27.1068 9.824C26.0241 9.824 25.1655 10.16 24.5308 10.832C23.8961 11.504 23.5788 12.4 23.5788 13.52V21.5H20.0788ZM42.4099 21.78C41.1779 21.78 40.0952 21.4907 39.1619 20.912C38.2286 20.3147 37.5006 19.4653 36.9779 18.364C36.4552 17.2627 36.1939 15.9467 36.1939 14.416C36.1939 12.8853 36.4552 11.5787 36.9779 10.496C37.5006 9.39467 38.2286 8.55467 39.1619 7.976C40.0952 7.37867 41.1779 7.08 42.4099 7.08C43.6046 7.08 44.6499 7.37867 45.5459 7.976C46.4606 8.55467 47.0672 9.33867 47.3659 10.328H47.0579L47.3659 7.36H50.7259C50.6699 7.93867 50.6139 8.52667 50.5579 9.124C50.5206 9.72133 50.5019 10.3093 50.5019 10.888V21.5H47.0299L47.0019 18.588H47.3379C47.0392 19.5587 46.4326 20.3333 45.5179 20.912C44.6032 21.4907 43.5672 21.78 42.4099 21.78ZM43.3899 19.092C44.4912 19.092 45.3779 18.7093 46.0499 17.944C46.7219 17.16 47.0579 15.984 47.0579 14.416C47.0579 12.848 46.7219 11.6813 46.0499 10.916C45.3779 10.1507 44.4912 9.768 43.3899 9.768C42.2886 9.768 41.4019 10.1507 40.7299 10.916C40.0579 11.6813 39.7219 12.848 39.7219 14.416C39.7219 15.984 40.0486 17.16 40.7019 17.944C41.3739 18.7093 42.2699 19.092 43.3899 19.092ZM54.3132 21.5V10.888C54.3132 10.3093 54.2945 9.72133 54.2572 9.124C54.2198 8.52667 54.1638 7.93867 54.0892 7.36H57.4772L57.7572 10.16H57.4212C57.8692 9.17067 58.5318 8.41467 59.4092 7.892C60.2865 7.35067 61.3038 7.08 62.4612 7.08C64.1225 7.08 65.3732 7.54667 66.2132 8.48C67.0532 9.41333 67.4732 10.8693 67.4732 12.848V21.5H63.9732V13.016C63.9732 11.8773 63.7492 11.0653 63.3012 10.58C62.8718 10.076 62.2185 9.824 61.3412 9.824C60.2585 9.824 59.3998 10.16 58.7652 10.832C58.1305 11.504 57.8132 12.4 57.8132 13.52V21.5H54.3132ZM77.6803 21.78C76.2243 21.78 74.9456 21.4813 73.8443 20.884C72.7616 20.2867 71.9216 19.4373 71.3243 18.336C70.7269 17.216 70.4283 15.8907 70.4283 14.36C70.4283 12.8293 70.7269 11.5227 71.3243 10.44C71.9403 9.35733 72.7896 8.52667 73.8723 7.948C74.9549 7.36933 76.2243 7.08 77.6803 7.08C78.6136 7.08 79.5189 7.22933 80.3963 7.528C81.2923 7.808 82.0203 8.21867 82.5803 8.76L81.5163 11.196C81.0123 10.7293 80.4429 10.384 79.8083 10.16C79.1923 9.91733 78.5856 9.796 77.9883 9.796C76.7376 9.796 75.7576 10.188 75.0483 10.972C74.3576 11.756 74.0123 12.8947 74.0123 14.388C74.0123 15.8813 74.3576 17.0293 75.0483 17.832C75.7576 18.6347 76.7376 19.036 77.9883 19.036C78.5669 19.036 79.1643 18.924 79.7803 18.7C80.4149 18.476 80.9936 18.1307 81.5163 17.664L82.5803 20.072C82.0016 20.6133 81.2643 21.0333 80.3683 21.332C79.4909 21.6307 78.5949 21.78 77.6803 21.78ZM91.8522 21.78C89.4815 21.78 87.6242 21.1267 86.2802 19.82C84.9362 18.5133 84.2642 16.7213 84.2642 14.444C84.2642 12.9693 84.5535 11.6813 85.1322 10.58C85.7109 9.47867 86.5135 8.62 87.5402 8.004C88.5855 7.388 89.7989 7.08 91.1802 7.08C92.5429 7.08 93.6815 7.36933 94.5962 7.948C95.5109 8.52667 96.2015 9.33867 96.6682 10.384C97.1535 11.4293 97.3962 12.652 97.3962 14.052V14.976H87.0922V13.128H94.9042L94.4282 13.52C94.4282 12.2133 94.1482 11.2147 93.5882 10.524C93.0469 9.83333 92.2535 9.488 91.2082 9.488C90.0509 9.488 89.1549 9.89867 88.5202 10.72C87.9042 11.5413 87.5962 12.6893 87.5962 14.164V14.528C87.5962 16.0587 87.9695 17.2067 88.7162 17.972C89.4815 18.7187 90.5549 19.092 91.9362 19.092C92.7389 19.092 93.4855 18.9893 94.1762 18.784C94.8855 18.56 95.5575 18.2053 96.1922 17.72L97.2282 20.072C96.5562 20.6133 95.7535 21.0333 94.8202 21.332C93.8869 21.6307 92.8975 21.78 91.8522 21.78ZM99.9681 21.5V17.608H103.888V21.5H99.9681ZM112.683 21.78C111.451 21.78 110.369 21.4907 109.435 20.912C108.502 20.3147 107.774 19.4653 107.251 18.364C106.729 17.2627 106.467 15.9467 106.467 14.416C106.467 12.8853 106.729 11.5787 107.251 10.496C107.774 9.39467 108.502 8.55467 109.435 7.976C110.369 7.37867 111.451 7.08 112.683 7.08C113.878 7.08 114.923 7.37867 115.819 7.976C116.734 8.55467 117.341 9.33867 117.639 10.328H117.331L117.639 7.36H120.999C120.943 7.93867 120.887 8.52667 120.831 9.124C120.794 9.72133 120.775 10.3093 120.775 10.888V21.5H117.303L117.275 18.588H117.611C117.313 19.5587 116.706 20.3333 115.791 20.912C114.877 21.4907 113.841 21.78 112.683 21.78ZM113.663 19.092C114.765 19.092 115.651 18.7093 116.323 17.944C116.995 17.16 117.331 15.984 117.331 14.416C117.331 12.848 116.995 11.6813 116.323 10.916C115.651 10.1507 114.765 9.768 113.663 9.768C112.562 9.768 111.675 10.1507 111.003 10.916C110.331 11.6813 109.995 12.848 109.995 14.416C109.995 15.984 110.322 17.16 110.975 17.944C111.647 18.7093 112.543 19.092 113.663 19.092ZM124.587 21.5V7.36H128.087V21.5H124.587ZM124.391 4.7V1.284H128.283V4.7H124.391Z" fill="white"/>
</svg>
